<svg width="62" height="39" viewBox="0 0 62 39" fill="none" xmlns="http://www.w3.org/2000/svg">
<path d="M9.344 31.752C9.16267 31.752 9.01867 31.688 8.912 31.56C8.816 31.432 8.768 31.1867 8.768 30.824C8.768 30.3013 8.80533 29.6933 8.88 29C8.95467 28.3067 9.056 27.5707 9.184 26.792C9.32267 26.0133 9.472 25.2347 9.632 24.456C9.80267 23.6773 9.97867 22.936 10.16 22.232C10.352 21.528 10.5387 20.904 10.72 20.36C10.9013 19.8053 11.0667 19.368 11.216 19.048C11.376 18.728 11.5147 18.568 11.632 18.568C11.8347 18.568 11.9947 18.6267 12.112 18.744C12.24 18.8613 12.304 19.0373 12.304 19.272C12.304 19.5707 12.2133 20.056 12.032 20.728C11.8507 21.3893 11.616 22.2533 11.328 23.32C11.5947 22.8293 11.8827 22.3173 12.192 21.784C12.5013 21.2507 12.8267 20.7333 13.168 20.232C13.5093 19.72 13.8507 19.2613 14.192 18.856C14.544 18.4507 14.8853 18.1253 15.216 17.88C15.5467 17.6347 15.8667 17.512 16.176 17.512C16.5067 17.512 16.8 17.6187 17.056 17.832C17.312 18.0347 17.5093 18.312 17.648 18.664C17.7973 19.0053 17.872 19.3893 17.872 19.816C17.872 20.7013 17.7227 21.56 17.424 22.392C17.1253 23.2133 16.7093 23.9547 16.176 24.616C15.6533 25.2667 15.0347 25.784 14.32 26.168C13.616 26.552 12.8533 26.744 12.032 26.744C11.7227 26.744 11.4453 26.728 11.2 26.696C10.9547 26.664 10.7413 26.6267 10.56 26.584C10.432 27.288 10.3093 28.0133 10.192 28.76C10.0747 29.5067 9.95733 30.3013 9.84 31.144C9.808 31.368 9.75467 31.5227 9.68 31.608C9.60533 31.704 9.49333 31.752 9.344 31.752ZM16.464 18.728C16.24 18.728 15.9733 18.856 15.664 19.112C15.3653 19.368 15.04 19.7093 14.688 20.136C14.3467 20.552 14 21.016 13.648 21.528C13.296 22.0293 12.9547 22.5413 12.624 23.064C12.2933 23.5867 11.9893 24.072 11.712 24.52C11.4453 24.968 11.2267 25.3413 11.056 25.64C11.888 25.6187 12.6187 25.4533 13.248 25.144C13.8773 24.824 14.416 24.4187 14.864 23.928C15.312 23.4267 15.6747 22.888 15.952 22.312C16.24 21.7253 16.448 21.16 16.576 20.616C16.704 20.0613 16.768 19.5813 16.768 19.176C16.768 18.8773 16.6667 18.728 16.464 18.728ZM22.9982 27.64C22.1769 27.64 21.5316 27.3733 21.0622 26.84C20.6036 26.296 20.3742 25.5387 20.3742 24.568C20.3742 23.9707 20.4542 23.272 20.6142 22.472C20.7849 21.6613 20.9982 20.808 21.2542 19.912C21.5209 19.0053 21.8089 18.1093 22.1182 17.224C22.4276 16.3387 22.7262 15.5173 23.0142 14.76C23.3129 13.992 23.5742 13.352 23.7982 12.84C23.9262 12.552 24.1076 12.408 24.3422 12.408C24.6622 12.408 24.8222 12.6053 24.8222 13C24.8222 13.128 24.7636 13.3893 24.6462 13.784C24.5289 14.1787 24.3742 14.6693 24.1823 15.256C23.9902 15.832 23.7822 16.472 23.5582 17.176C23.3342 17.88 23.1049 18.6053 22.8702 19.352C22.6462 20.088 22.4382 20.8187 22.2462 21.544C22.0542 22.2587 21.8996 22.9307 21.7822 23.56C21.6649 24.1893 21.6062 24.728 21.6062 25.176C21.6062 25.464 21.6809 25.6933 21.8302 25.864C21.9902 26.024 22.2036 26.104 22.4702 26.104C22.9609 26.104 23.4516 26.008 23.9422 25.816C24.4436 25.6133 24.9236 25.368 25.3822 25.08C25.8409 24.7813 26.2569 24.488 26.6302 24.2C27.0143 23.9013 27.3396 23.656 27.6062 23.464C27.8729 23.2613 28.0596 23.16 28.1663 23.16C28.4009 23.16 28.5183 23.288 28.5183 23.544C28.5183 23.6293 28.4329 23.7893 28.2622 24.024C28.0916 24.248 27.8623 24.5147 27.5743 24.824C27.2863 25.1333 26.9502 25.4533 26.5662 25.784C26.1929 26.104 25.7982 26.408 25.3822 26.696C24.9769 26.9733 24.5663 27.1973 24.1502 27.368C23.7449 27.5493 23.3609 27.64 22.9982 27.64ZM29.1565 26.632C28.8472 26.632 28.5698 26.456 28.3245 26.104C28.0792 25.752 27.9565 25.2987 27.9565 24.744C27.9565 24.136 28.0365 23.4853 28.1965 22.792C28.3672 22.0987 28.5752 21.3947 28.8205 20.68C29.0658 19.9547 29.3058 19.256 29.5405 18.584C29.5938 18.4453 29.6685 18.344 29.7645 18.28C29.8712 18.2053 30.0312 18.168 30.2445 18.168C30.6285 18.168 30.8205 18.3547 30.8205 18.728C30.8205 18.8133 30.7778 19.0053 30.6925 19.304C30.6072 19.6027 30.4952 19.9707 30.3565 20.408C30.2285 20.8453 30.0952 21.32 29.9565 21.832C29.8178 22.3333 29.6952 22.84 29.5885 23.352C29.4818 23.864 29.4072 24.3387 29.3645 24.776C29.5352 24.5947 29.7272 24.3173 29.9405 23.944C30.1645 23.5707 30.4045 23.1493 30.6605 22.68C30.9165 22.2 31.1832 21.72 31.4605 21.24C31.7378 20.7493 32.0152 20.3013 32.2925 19.896C32.5805 19.48 32.8578 19.1493 33.1245 18.904C33.4018 18.648 33.6578 18.52 33.8925 18.52C34.2338 18.52 34.5218 18.6267 34.7565 18.84C35.0018 19.0427 35.1885 19.4053 35.3165 19.928C35.4552 20.44 35.5245 21.1653 35.5245 22.104C35.5245 22.6053 35.5725 23.0747 35.6685 23.512C35.7752 23.9493 35.9405 24.3013 36.1645 24.568C36.3992 24.824 36.6978 24.952 37.0605 24.952C37.6045 24.952 38.0898 24.856 38.5165 24.664C38.9432 24.4613 39.3112 24.2373 39.6205 23.992C39.9405 23.736 40.2072 23.512 40.4205 23.32C40.6338 23.1173 40.7992 23.016 40.9165 23.016C41.1618 23.016 41.2845 23.144 41.2845 23.4C41.2845 23.5067 41.2045 23.6773 41.0445 23.912C40.8952 24.136 40.6818 24.392 40.4045 24.68C40.1378 24.9573 39.8285 25.2293 39.4765 25.496C39.1352 25.752 38.7672 25.9653 38.3725 26.136C37.9885 26.3067 37.5992 26.392 37.2045 26.392C36.4685 26.392 35.8658 26.248 35.3965 25.96C34.9378 25.672 34.5965 25.1973 34.3725 24.536C34.1592 23.8747 34.0525 22.9893 34.0525 21.88C34.0525 21.272 34.0152 20.8293 33.9405 20.552C33.8765 20.264 33.7538 20.072 33.5725 19.976C33.4445 20.2 33.2792 20.52 33.0765 20.936C32.8738 21.3413 32.6392 21.7947 32.3725 22.296C32.1165 22.7973 31.8445 23.304 31.5565 23.816C31.2792 24.3173 30.9965 24.7813 30.7085 25.208C30.4205 25.6347 30.1432 25.9813 29.8765 26.248C29.6098 26.504 29.3698 26.632 29.1565 26.632ZM39.6368 21.88C39.3488 21.8587 39.2154 21.672 39.2368 21.32C39.2474 21.2347 39.3061 21.1333 39.4128 21.016C39.5194 20.888 39.6421 20.8187 39.7808 20.808C40.1114 20.776 40.5168 20.728 40.9968 20.664C41.4874 20.5893 42.0261 20.504 42.6128 20.408C42.7194 19.8853 42.8474 19.336 42.9968 18.76C43.1461 18.184 43.3114 17.624 43.4928 17.08C43.6741 16.5253 43.8661 16.024 44.0688 15.576C44.2714 15.128 44.4848 14.776 44.7088 14.52C44.8261 14.4027 44.9328 14.3227 45.0288 14.28C45.1248 14.2267 45.2101 14.2 45.2848 14.2C45.4341 14.2 45.5514 14.264 45.6368 14.392C45.7328 14.52 45.7808 14.664 45.7808 14.824C45.7808 14.9093 45.7648 14.9947 45.7328 15.08C45.5194 15.6773 45.2901 16.4133 45.0448 17.288C44.7994 18.1627 44.5381 19.1173 44.2608 20.152C45.2421 19.992 46.2234 19.8213 47.2048 19.64C48.1861 19.4587 49.0288 19.2933 49.7328 19.144C49.9354 19.0587 50.0901 19.0747 50.1968 19.192C50.3141 19.3093 50.3728 19.4267 50.3728 19.544C50.3728 19.6933 50.3301 19.8053 50.2448 19.88C50.1701 19.9547 50.0901 20.0187 50.0048 20.072L49.9888 20.088C49.7754 20.1733 49.4554 20.2747 49.0288 20.392C48.6021 20.4987 48.1114 20.616 47.5568 20.744C47.0021 20.8613 46.4101 20.9787 45.7808 21.096C45.1621 21.2133 44.5488 21.32 43.9408 21.416C43.6954 22.3547 43.4448 23.32 43.1888 24.312C42.9434 25.2933 42.6981 26.2587 42.4528 27.208C42.3461 27.592 42.2234 27.832 42.0848 27.928C41.9568 28.0347 41.8181 28.088 41.6688 28.088C41.4981 28.088 41.3488 28.024 41.2208 27.896C41.1034 27.768 41.0874 27.5067 41.1728 27.112L42.3408 21.656C41.7008 21.752 41.1354 21.8213 40.6448 21.864C40.1648 21.9067 39.8288 21.912 39.6368 21.88ZM55.5014 18.952C55.7894 18.2587 56.0614 17.544 56.3174 16.808C56.584 16.072 56.824 15.32 57.0374 14.552C57.1014 14.3387 57.1974 14.168 57.3254 14.04C57.464 13.9013 57.624 13.832 57.8054 13.832C57.9334 13.832 58.04 13.88 58.1254 13.976C58.2214 14.072 58.2694 14.2 58.2694 14.36C58.2694 14.5627 58.1894 14.9147 58.0294 15.416C57.88 15.9173 57.688 16.552 57.4534 17.32C57.2294 18.088 57 18.9733 56.7654 19.976C56.5414 20.968 56.3494 22.0667 56.1894 23.272C56.04 24.4773 55.9654 25.7627 55.9654 27.128C55.9654 27.4267 55.9014 27.672 55.7734 27.864C55.6454 28.0667 55.4907 28.168 55.3094 28.168C55.2027 28.168 55.1014 28.1413 55.0054 28.088C54.9094 28.0347 54.824 27.9067 54.7494 27.704C54.6854 27.512 54.632 27.208 54.5894 26.792C54.5467 26.3653 54.5254 25.7893 54.5254 25.064C54.5254 24.5093 54.5574 23.9067 54.6214 23.256C54.1307 24.1413 53.5974 24.9147 53.0214 25.576C52.456 26.2267 51.9067 26.728 51.3734 27.08C50.8507 27.432 50.4027 27.608 50.0294 27.608C49.5707 27.608 49.1974 27.4533 48.9094 27.144C48.632 26.8453 48.4934 26.3973 48.4934 25.8C48.4934 25.2773 48.616 24.7387 48.8614 24.184C49.1067 23.6293 49.432 23.0853 49.8374 22.552C50.2427 22.008 50.6907 21.496 51.1814 21.016C51.672 20.536 52.1627 20.1147 52.6534 19.752C53.1547 19.3787 53.6187 19.0907 54.0454 18.888C54.472 18.6747 54.8187 18.568 55.0854 18.568C55.192 18.568 55.288 18.6053 55.3734 18.68C55.4587 18.7547 55.5014 18.8453 55.5014 18.952ZM55.2934 19.448C55.2187 19.5227 55.128 19.5973 55.0214 19.672C54.9147 19.7467 54.7974 19.8267 54.6694 19.912C54.2 20.2427 53.6827 20.6267 53.1174 21.064C52.5627 21.4907 52.0294 21.96 51.5174 22.472C51.016 22.9733 50.6054 23.5013 50.2854 24.056C49.9654 24.6107 49.8054 25.1813 49.8054 25.768C49.8054 26.024 49.9334 26.152 50.1894 26.152C50.5414 26.152 50.9254 25.9867 51.3414 25.656C51.768 25.3147 52.2054 24.8453 52.6534 24.248C53.1014 23.64 53.5494 22.9307 53.9974 22.12C54.4454 21.2987 54.8774 20.408 55.2934 19.448ZM60.0379 27.24C59.8032 27.24 59.5739 27.1653 59.3499 27.016C59.1365 26.8667 59.0299 26.6213 59.0299 26.28C59.0299 26.0027 59.0992 25.7787 59.2379 25.608C59.3765 25.4373 59.5365 25.3147 59.7179 25.24C59.8992 25.1547 60.0592 25.112 60.1979 25.112C60.3365 25.112 60.4912 25.144 60.6619 25.208C60.8432 25.272 60.9979 25.384 61.1259 25.544C61.2539 25.6933 61.3179 25.9173 61.3179 26.216C61.3179 26.5147 61.1899 26.76 60.9339 26.952C60.6779 27.144 60.3792 27.24 60.0379 27.24Z" fill="#A3DE83"/>
</svg>
